<svg xmlns="http://www.w3.org/2000/svg" fill="none" viewBox="5.09 58.56 142.04 131.11">
<path d="M6.5875 148V145.824H12.9875C15.3768 145.824 16.5715 144.587 16.5715 142.112V65.952C16.5715 63.4773 15.4195 62.24 13.1155 62.24H6.5875V60.064H42.8115C51.6862 60.064 58.2995 61.8133 62.6515 65.312C67.0888 68.8107 69.3075 73.8453 69.3075 80.416C69.3075 85.1093 67.9848 89.1627 65.3395 92.576C62.6942 95.9893 58.5982 98.336 53.0515 99.616C59.7075 101.152 64.8702 104.011 68.5395 108.192C72.2088 112.373 74.0435 117.365 74.0435 123.168C74.0435 127.776 73.0195 131.957 70.9715 135.712C69.0088 139.467 65.7662 142.453 61.2435 144.672C56.7208 146.891 50.5768 148 42.8115 148H6.5875ZM18.8755 98.592H42.8115C51.0888 98.592 57.1902 96.8853 61.1155 93.472C65.0408 90.0587 67.0035 85.7067 67.0035 80.416C67.0035 68.2987 58.9395 62.24 42.8115 62.24H18.8755V98.592ZM18.8755 145.824H42.8115C50.0648 145.824 55.7822 144.8 59.9635 142.752C64.2302 140.704 67.2595 137.973 69.0515 134.56C70.8435 131.147 71.7395 127.349 71.7395 123.168C71.7395 116.597 69.1795 111.221 64.0595 107.04C58.9395 102.859 51.8568 100.768 42.8115 100.768H18.8755V145.824Z" fill="#16A34A"/>
<path d="M6.5875 148H5.0875V149.5H6.5875V148ZM6.5875 145.824V144.324H5.0875V145.824H6.5875ZM6.5875 62.24H5.0875V63.74H6.5875V62.24ZM6.5875 60.064V58.564H5.0875V60.064H6.5875ZM62.6515 65.312L61.7117 66.4811L61.7172 66.4855L61.7228 66.4899L62.6515 65.312ZM65.3395 92.576L64.1539 91.6571V91.6571L65.3395 92.576ZM53.0515 99.616L52.7142 98.1544V101.078L53.0515 99.616ZM68.5395 108.192L69.6669 107.203V107.203L68.5395 108.192ZM70.9715 135.712L69.6547 134.994L69.6483 135.005L69.6422 135.017L70.9715 135.712ZM18.8755 98.592H17.3755V100.092H18.8755V98.592ZM61.1155 93.472L60.1312 92.3401V92.3401L61.1155 93.472ZM18.8755 62.24V60.74H17.3755V62.24H18.8755ZM18.8755 145.824H17.3755V147.324H18.8755V145.824ZM59.9635 142.752L59.3144 141.4L59.3037 141.405L59.9635 142.752ZM69.0515 134.56L70.3796 135.257V135.257L69.0515 134.56ZM64.0595 107.04L65.0083 105.878L64.0595 107.04ZM18.8755 100.768V99.268H17.3755V100.768H18.8755ZM6.5875 148H8.0875V145.824H6.5875H5.0875V148H6.5875ZM6.5875 145.824V147.324H12.9875V145.824V144.324H6.5875V145.824ZM12.9875 145.824V147.324C14.427 147.324 15.779 146.948 16.7546 145.938C17.7208 144.937 18.0715 143.568 18.0715 142.112H16.5715H15.0715C15.0715 143.131 14.8249 143.617 14.5964 143.854C14.3774 144.081 13.9373 144.324 12.9875 144.324V145.824ZM16.5715 142.112H18.0715V65.952H16.5715H15.0715V142.112H16.5715ZM16.5715 65.952H18.0715C18.0715 64.509 17.7378 63.1474 16.8053 62.1459C15.8541 61.1241 14.5273 60.74 13.1155 60.74V62.24V63.74C14.0077 63.74 14.4089 63.9745 14.6097 64.1901C14.8292 64.4259 15.0715 64.9203 15.0715 65.952H16.5715ZM13.1155 62.24V60.74H6.5875V62.24V63.74H13.1155V62.24ZM6.5875 62.24H8.0875V60.064H6.5875H5.0875V62.24H6.5875ZM6.5875 60.064V61.564H42.8115V60.064V58.564H6.5875V60.064ZM42.8115 60.064V61.564C51.533 61.564 57.7431 63.2906 61.7117 66.4811L62.6515 65.312L63.5913 64.1429C58.8559 60.336 51.8394 58.564 42.8115 58.564V60.064ZM62.6515 65.312L61.7228 66.4899C65.7381 69.6558 67.8075 74.2206 67.8075 80.416H69.3075H70.8075C70.8075 73.4701 68.4396 67.9655 63.5802 64.1341L62.6515 65.312ZM69.3075 80.416H67.8075C67.8075 84.8074 66.5774 88.53 64.1539 91.6571L65.3395 92.576L66.5251 93.4949C69.3923 89.7953 70.8075 85.4113 70.8075 80.416H69.3075ZM65.3395 92.576L64.1539 91.6571C61.7795 94.7208 58.032 96.9272 52.7142 98.1544L53.0515 99.616L53.3888 101.078C59.1643 99.7448 63.6088 97.2578 66.5251 93.4949L65.3395 92.576ZM53.0515 99.616L52.7142 101.078C59.1348 102.559 63.9935 105.286 67.4121 109.181L68.5395 108.192L69.6669 107.203C65.7469 102.736 60.2802 99.7447 53.3888 98.1544L53.0515 99.616ZM68.5395 108.192L67.4121 109.181C70.8302 113.076 72.5435 117.712 72.5435 123.168H74.0435H75.5435C75.5435 117.018 73.5875 111.67 69.6669 107.203L68.5395 108.192ZM74.0435 123.168H72.5435C72.5435 127.545 71.5733 131.476 69.6547 134.994L70.9715 135.712L72.2883 136.43C74.4657 132.438 75.5435 128.007 75.5435 123.168H74.0435ZM70.9715 135.712L69.6422 135.017C67.8537 138.438 64.8747 141.22 60.5829 143.325L61.2435 144.672L61.9041 146.019C66.6577 143.687 70.1639 140.495 72.3008 136.407L70.9715 135.712ZM61.2435 144.672L60.5829 143.325C56.3472 145.403 50.46 146.5 42.8115 146.5V148V149.5C50.6937 149.5 57.0945 148.378 61.9041 146.019L61.2435 144.672ZM42.8115 148V146.5H6.5875V148V149.5H42.8115V148ZM18.8755 98.592V100.092H42.8115V98.592V97.092H18.8755V98.592ZM42.8115 98.592V100.092C51.2484 100.092 57.7801 98.3602 62.0998 94.6039L61.1155 93.472L60.1312 92.3401C56.6003 95.4105 50.9293 97.092 42.8115 97.092V98.592ZM61.1155 93.472L62.0998 94.6039C66.3591 90.9001 68.5035 86.1323 68.5035 80.416H67.0035H65.5035C65.5035 85.281 63.7226 89.2172 60.1312 92.3401L61.1155 93.472ZM67.0035 80.416H68.5035C68.5035 73.9923 66.3435 68.9559 61.8565 65.5848C57.4503 62.2742 51.0201 60.74 42.8115 60.74V62.24V63.74C50.7309 63.74 56.3967 65.2351 60.0545 67.9832C63.6315 70.6708 65.5035 74.7223 65.5035 80.416H67.0035ZM42.8115 62.24V60.74H18.8755V62.24V63.74H42.8115V62.24ZM18.8755 62.24H17.3755V98.592H18.8755H20.3755V62.24H18.8755ZM18.8755 145.824V147.324H42.8115V145.824V144.324H18.8755V145.824ZM42.8115 145.824V147.324C50.1786 147.324 56.1536 146.288 60.6233 144.099L59.9635 142.752L59.3037 141.405C55.4107 143.312 49.951 144.324 42.8115 144.324V145.824ZM59.9635 142.752L60.6126 144.104C65.1026 141.949 68.4062 139.016 70.3796 135.257L69.0515 134.56L67.7234 133.863C66.1128 136.93 63.3577 139.459 59.3144 141.4L59.9635 142.752ZM69.0515 134.56L70.3796 135.257C72.2939 131.611 73.2395 127.571 73.2395 123.168H71.7395H70.2395C70.2395 127.127 69.3931 130.682 67.7234 133.863L69.0515 134.56ZM71.7395 123.168H73.2395C73.2395 116.144 70.4747 110.342 65.0083 105.878L64.0595 107.04L63.1107 108.202C67.8843 112.1 70.2395 117.051 70.2395 123.168H71.7395ZM64.0595 107.04L65.0083 105.878C59.5365 101.41 52.076 99.268 42.8115 99.268V100.768V102.268C51.6377 102.268 58.3425 104.308 63.1107 108.202L64.0595 107.04ZM42.8115 100.768V99.268H18.8755V100.768V102.268H42.8115V100.768ZM18.8755 100.768H17.3755V145.824H18.8755H20.3755V100.768H18.8755Z" fill="#16A34A"/>
<path d="M73.37 188.176C68.506 188.176 63.9407 187.28 59.674 185.488C55.4927 183.696 51.994 181.136 49.178 177.808C46.4473 174.395 44.7407 170.341 44.058 165.648C43.802 163.941 43.802 162.619 44.058 161.68C44.314 160.741 44.6553 160.101 45.082 159.76C45.9353 158.992 46.9167 158.907 48.026 159.504C49.2207 160.016 49.562 160.997 49.05 162.448C48.794 163.131 48.41 163.6 47.898 163.856C47.4713 164.112 47.0873 164.453 46.746 164.88C46.49 165.307 46.49 166.16 46.746 167.44C47.514 171.365 49.178 174.736 51.738 177.552C54.3833 180.283 57.5833 182.373 61.338 183.824C65.178 185.189 69.1887 185.915 73.37 186C78.3193 186 82.714 185.147 86.554 183.44C90.394 181.648 93.4233 179.173 95.642 176.016C97.8607 172.773 98.9273 169.019 98.842 164.752C98.7567 160.229 97.1353 156.219 93.978 152.72C90.906 149.221 86.7673 146.235 81.562 143.76C79.1727 142.565 76.7407 141.456 74.266 140.432C71.7913 139.323 69.1887 138.213 66.458 137.104C64.8367 136.421 62.9593 135.568 60.826 134.544C58.6927 133.52 56.602 132.24 54.554 130.704C52.506 129.083 50.7567 127.163 49.306 124.944C47.9407 122.64 47.2153 119.909 47.13 116.752C46.9593 110.779 49.0073 105.829 53.274 101.904C57.626 97.8933 63.6847 95.888 71.45 95.888C77.7647 95.888 83.098 97.296 87.45 100.112C91.8873 102.928 94.9167 106.683 96.538 111.376C97.2207 113.509 97.4767 115.173 97.306 116.368C97.1353 117.563 96.794 118.373 96.282 118.8C95.4287 119.483 94.49 119.568 93.466 119.056C92.442 118.459 92.058 117.52 92.314 116.24C92.57 115.557 92.9113 115.088 93.338 114.832C93.85 114.491 94.234 114.107 94.49 113.68C94.746 113.253 94.6607 112.485 94.234 111.376C92.7833 107.451 90.0527 104.251 86.042 101.776C82.1167 99.3013 77.2527 98.064 71.45 98.064C64.4527 98.064 58.9913 99.8133 55.066 103.312C51.1407 106.725 49.2207 111.205 49.306 116.752C49.3913 119.568 50.074 122 51.354 124.048C52.7193 126.011 54.3407 127.717 56.218 129.168C58.1807 130.533 60.1433 131.685 62.106 132.624C64.0687 133.563 65.69 134.331 66.97 134.928C69.7007 136.208 72.218 137.317 74.522 138.256C76.826 139.109 79.1727 140.133 81.562 141.328C87.6207 144.229 92.3993 147.643 95.898 151.568C99.3967 155.493 101.103 159.888 101.018 164.752C101.018 169.531 99.7807 173.712 97.306 177.296C94.9167 180.795 91.6313 183.483 87.45 185.36C83.354 187.237 78.6607 188.176 73.37 188.176Z" fill="#16A34A"/>
<path d="M59.674 185.488L59.0831 186.867L59.0932 186.871L59.674 185.488ZM49.178 177.808L48.0067 178.745L48.0196 178.761L48.0329 178.777L49.178 177.808ZM44.058 165.648L45.5424 165.432L45.5414 165.425L44.058 165.648ZM44.058 161.68L42.6109 161.285L44.058 161.68ZM45.082 159.76L46.019 160.931L46.0531 160.904L46.0854 160.875L45.082 159.76ZM48.026 159.504L47.3149 160.825L47.3737 160.856L47.4351 160.883L48.026 159.504ZM49.05 162.448L50.4545 162.975L50.4596 162.961L50.4645 162.947L49.05 162.448ZM47.898 163.856L47.2272 162.514L47.1757 162.54L47.1263 162.57L47.898 163.856ZM46.746 164.88L45.5747 163.943L45.5117 164.022L45.4598 164.108L46.746 164.88ZM46.746 167.44L48.2181 167.152L48.2169 167.146L46.746 167.44ZM51.738 177.552L50.6281 178.561L50.6441 178.579L50.6606 178.596L51.738 177.552ZM61.338 183.824L60.7974 185.223L60.8163 185.231L60.8355 185.237L61.338 183.824ZM73.37 186L73.3394 187.5L73.3547 187.5H73.37V186ZM86.554 183.44L87.1632 184.811L87.1758 184.805L87.1883 184.799L86.554 183.44ZM95.642 176.016L96.8693 176.878L96.8747 176.871L96.88 176.863L95.642 176.016ZM98.842 164.752L97.3423 164.78L97.3423 164.782L98.842 164.752ZM93.978 152.72L92.8508 153.71L92.8576 153.717L92.8644 153.725L93.978 152.72ZM81.562 143.76L80.8912 145.102L80.9045 145.108L80.918 145.115L81.562 143.76ZM74.266 140.432L73.6524 141.801L73.6723 141.81L73.6925 141.818L74.266 140.432ZM66.458 137.104L65.8759 138.486L65.8847 138.49L65.8934 138.494L66.458 137.104ZM60.826 134.544L60.1769 135.896H60.1769L60.826 134.544ZM54.554 130.704L53.6229 131.88L53.6383 131.892L53.654 131.904L54.554 130.704ZM49.306 124.944L48.0156 125.709L48.0324 125.737L48.0505 125.765L49.306 124.944ZM47.13 116.752L48.6295 116.711L48.6294 116.709L47.13 116.752ZM53.274 101.904L54.2896 103.008L54.2905 103.007L53.274 101.904ZM87.45 100.112L86.6351 101.371L86.6463 101.378L87.45 100.112ZM96.538 111.376L97.9666 110.919L97.9614 110.902L97.9558 110.886L96.538 111.376ZM96.282 118.8L97.219 119.971L97.2308 119.962L97.2423 119.952L96.282 118.8ZM93.466 119.056L92.7102 120.352L92.7519 120.376L92.7952 120.398L93.466 119.056ZM92.314 116.24L90.9095 115.713L90.8669 115.827L90.8431 115.946L92.314 116.24ZM93.338 114.832L94.1097 116.118L94.1404 116.1L94.17 116.08L93.338 114.832ZM94.49 113.68L95.7762 114.452V114.452L94.49 113.68ZM94.234 111.376L92.827 111.896L92.8304 111.905L92.834 111.914L94.234 111.376ZM86.042 101.776L85.2421 103.045L85.2482 103.049L85.2543 103.053L86.042 101.776ZM55.066 103.312L56.0503 104.444L56.0572 104.438L56.0641 104.432L55.066 103.312ZM49.306 116.752L47.8062 116.775L47.8063 116.786L47.8067 116.797L49.306 116.752ZM51.354 124.048L50.082 124.843L50.1016 124.874L50.1226 124.905L51.354 124.048ZM56.218 129.168L55.3008 130.355L55.3306 130.378L55.3614 130.399L56.218 129.168ZM66.97 134.928L67.6067 133.57L67.6043 133.569L66.97 134.928ZM74.522 138.256L73.9561 139.645L73.9784 139.654L74.001 139.663L74.522 138.256ZM81.562 141.328L80.8912 142.67L80.9026 142.675L80.9141 142.681L81.562 141.328ZM95.898 151.568L97.0178 150.57V150.57L95.898 151.568ZM101.018 164.752L99.5182 164.726L99.518 164.739V164.752H101.018ZM97.306 177.296L96.0716 176.444L96.0673 176.45L97.306 177.296ZM87.45 185.36L86.8356 183.992L86.825 183.996L87.45 185.36ZM73.37 188.176V186.676C68.6951 186.676 64.3283 185.816 60.2549 184.105L59.674 185.488L59.0932 186.871C63.553 188.744 68.3169 189.676 73.37 189.676V188.176ZM59.674 185.488L60.2649 184.109C56.288 182.405 52.9821 179.982 50.3231 176.839L49.178 177.808L48.0329 178.777C51.0059 182.29 54.6973 184.987 59.0831 186.867L59.674 185.488ZM49.178 177.808L50.3493 176.871C47.7993 173.683 46.19 169.885 45.5424 165.432L44.058 165.648L42.5736 165.864C43.2913 170.798 45.0954 175.106 48.0067 178.745L49.178 177.808ZM44.058 165.648L45.5414 165.425C45.296 163.79 45.3311 162.713 45.5051 162.075L44.058 161.68L42.6109 161.285C42.2729 162.524 42.308 164.093 42.5746 165.871L44.058 165.648ZM44.058 161.68L45.5051 162.075C45.7351 161.232 45.969 160.971 46.019 160.931L45.082 159.76L44.145 158.589C43.3417 159.231 42.8929 160.251 42.6109 161.285L44.058 161.68ZM45.082 159.76L46.0854 160.875C46.3115 160.671 46.4736 160.624 46.5879 160.614C46.7159 160.603 46.9463 160.626 47.3149 160.825L48.026 159.504L48.7372 158.183C47.9963 157.784 47.1814 157.551 46.3281 157.626C45.4611 157.701 44.7058 158.081 44.0786 158.645L45.082 159.76ZM48.026 159.504L47.4351 160.883C47.5999 160.953 47.6809 161.017 47.7164 161.051C47.7464 161.081 47.755 161.099 47.7613 161.117C47.7776 161.164 47.8307 161.396 47.6355 161.949L49.05 162.448L50.4645 162.947C50.7813 162.049 50.9198 161.066 50.5947 160.131C50.2522 159.146 49.4975 158.503 48.6169 158.125L48.026 159.504ZM49.05 162.448L47.6455 161.921C47.4847 162.35 47.3153 162.47 47.2272 162.514L47.898 163.856L48.5688 165.198C49.5047 164.73 50.1033 163.911 50.4545 162.975L49.05 162.448ZM47.898 163.856L47.1263 162.57C46.5324 162.926 46.0165 163.391 45.5747 163.943L46.746 164.88L47.9173 165.817C48.1582 165.516 48.4103 165.298 48.6697 165.142L47.898 163.856ZM46.746 164.88L45.4598 164.108C45.1244 164.667 45.054 165.312 45.054 165.84C45.054 166.403 45.1368 167.042 45.2751 167.734L46.746 167.44L48.2169 167.146C48.0992 166.558 48.054 166.131 48.054 165.84C48.054 165.514 48.1116 165.52 48.0322 165.652L46.746 164.88ZM46.746 167.44L45.2739 167.728C46.0917 171.908 47.8742 175.532 50.6281 178.561L51.738 177.552L52.8479 176.543C50.4818 173.94 48.9363 170.823 48.2181 167.152L46.746 167.44ZM51.738 177.552L50.6606 178.596C53.4659 181.491 56.8523 183.699 60.7974 185.223L61.338 183.824L61.8786 182.425C58.3143 181.048 55.3008 179.074 52.8154 176.508L51.738 177.552ZM61.338 183.824L60.8355 185.237C64.8311 186.658 69.0014 187.411 73.3394 187.5L73.37 186L73.4006 184.5C69.3759 184.418 65.5249 183.721 61.8405 182.411L61.338 183.824ZM73.37 186V187.5C78.4924 187.5 83.1004 186.616 87.1632 184.811L86.554 183.44L85.9448 182.069C82.3276 183.677 78.1463 184.5 73.37 184.5V186ZM86.554 183.44L87.1883 184.799C91.2421 182.908 94.4853 180.271 96.8693 176.878L95.642 176.016L94.4147 175.154C92.3614 178.076 89.5459 180.388 85.9197 182.081L86.554 183.44ZM95.642 176.016L96.88 176.863C99.2905 173.34 100.433 169.273 100.342 164.722L98.842 164.752L97.3423 164.782C97.422 168.765 96.4309 172.207 94.404 175.169L95.642 176.016ZM98.842 164.752L100.342 164.724C100.249 159.823 98.4801 155.47 95.0916 151.715L93.978 152.72L92.8644 153.725C95.7906 156.967 97.2641 160.635 97.3423 164.78L98.842 164.752ZM93.978 152.72L95.1052 151.73C91.8707 148.047 87.553 144.947 82.206 142.405L81.562 143.76L80.918 145.115C85.9817 147.522 89.9413 150.396 92.8508 153.71L93.978 152.72ZM81.562 143.76L82.2328 142.418C79.8115 141.208 77.3471 140.084 74.8395 139.046L74.266 140.432L73.6925 141.818C76.1343 142.828 78.5338 143.923 80.8912 145.102L81.562 143.76ZM74.266 140.432L74.8796 139.063C72.3874 137.946 69.7683 136.83 67.0226 135.714L66.458 137.104L65.8934 138.494C68.609 139.597 71.1953 140.699 73.6524 141.801L74.266 140.432ZM66.458 137.104L67.0401 135.722C65.4475 135.051 63.5933 134.208 61.4751 133.192L60.826 134.544L60.1769 135.896C62.3253 136.928 64.2258 137.792 65.8759 138.486L66.458 137.104ZM60.826 134.544L61.4751 133.192C59.437 132.213 57.4299 130.986 55.454 129.504L54.554 130.704L53.654 131.904C55.7741 133.494 57.9483 134.827 60.1769 135.896L60.826 134.544ZM54.554 130.704L55.4851 129.528C53.5655 128.008 51.9251 126.209 50.5615 124.123L49.306 124.944L48.0505 125.765C49.5882 128.117 51.4465 130.157 53.6229 131.88L54.554 130.704ZM49.306 124.944L50.5964 124.179C49.3828 122.131 48.7091 119.659 48.6295 116.711L47.13 116.752L45.6305 116.793C45.7215 120.159 46.4985 123.149 48.0156 125.709L49.306 124.944ZM47.13 116.752L48.6294 116.709C48.4707 111.155 50.3537 106.629 54.2896 103.008L53.274 101.904L52.2584 100.8C47.661 105.03 45.448 110.403 45.6306 116.795L47.13 116.752ZM53.274 101.904L54.2905 103.007C58.288 99.3231 63.9407 97.388 71.45 97.388V95.888V94.388C63.4287 94.388 56.964 96.4636 52.2575 100.801L53.274 101.904ZM71.45 95.888V97.388C77.5391 97.388 82.5742 98.7437 86.6351 101.371L87.45 100.112L88.2649 98.8526C83.6218 95.8483 77.9903 94.388 71.45 94.388V95.888ZM87.45 100.112L86.6463 101.378C90.8149 104.024 93.6165 107.513 95.1202 111.866L96.538 111.376L97.9558 110.886C96.2168 105.852 92.9598 101.832 88.2537 98.8455L87.45 100.112ZM96.538 111.376L95.1094 111.833C95.7723 113.905 95.9427 115.304 95.8211 116.156L97.306 116.368L98.7909 116.58C99.0106 115.042 98.669 113.114 97.9666 110.919L96.538 111.376ZM97.306 116.368L95.8211 116.156C95.6647 117.25 95.3932 117.588 95.3217 117.648L96.282 118.8L97.2423 119.952C98.1949 119.159 98.606 117.875 98.7909 116.58L97.306 116.368ZM96.282 118.8L95.345 117.629C95.1104 117.816 94.9342 117.87 94.8022 117.882C94.665 117.895 94.4531 117.872 94.1368 117.714L93.466 119.056L92.7952 120.398C93.5029 120.752 94.2724 120.943 95.0738 120.87C95.8805 120.797 96.6002 120.466 97.219 119.971L96.282 118.8ZM93.466 119.056L94.2218 117.76C93.9449 117.599 93.845 117.45 93.7983 117.336C93.746 117.208 93.6983 116.967 93.7849 116.534L92.314 116.24L90.8431 115.946C90.6738 116.793 90.69 117.661 91.0217 118.472C91.359 119.296 91.9631 119.916 92.7102 120.352L93.466 119.056ZM92.314 116.24L93.7185 116.767C93.909 116.259 94.0819 116.135 94.1097 116.118L93.338 114.832L92.5663 113.546C91.7408 114.041 91.231 114.856 90.9095 115.713L92.314 116.24ZM93.338 114.832L94.17 116.08C94.8241 115.644 95.3822 115.108 95.7762 114.452L94.49 113.68L93.2038 112.908C93.0858 113.105 92.8759 113.337 92.506 113.584L93.338 114.832ZM94.49 113.68L95.7762 114.452C96.1439 113.839 96.1689 113.159 96.1088 112.618C96.0465 112.058 95.8716 111.455 95.634 110.838L94.234 111.376L92.834 111.914C93.0231 112.406 93.1041 112.742 93.1272 112.95C93.1524 113.177 93.0922 113.094 93.2038 112.908L94.49 113.68ZM94.234 111.376L95.641 110.856C94.0596 106.577 91.0876 103.127 86.8297 100.499L86.042 101.776L85.2543 103.053C89.0178 105.375 91.507 108.324 92.827 111.896L94.234 111.376ZM86.042 101.776L86.842 100.507C82.6237 97.8478 77.4652 96.564 71.45 96.564V98.064V99.564C77.0402 99.564 81.6097 100.755 85.2421 103.045L86.042 101.776ZM71.45 98.064V96.564C64.2083 96.564 58.3482 98.3772 54.0679 102.192L55.066 103.312L56.0641 104.432C59.6345 101.249 64.697 99.564 71.45 99.564V98.064ZM55.066 103.312L54.0817 102.18C49.7982 105.905 47.7146 110.82 47.8062 116.775L49.306 116.752L50.8058 116.729C50.7268 111.591 52.4831 107.546 56.0503 104.444L55.066 103.312ZM49.306 116.752L47.8067 116.797C47.8987 119.834 48.6392 122.535 50.082 124.843L51.354 124.048L52.626 123.253C51.5088 121.465 50.884 119.302 50.8053 116.707L49.306 116.752ZM51.354 124.048L50.1226 124.905C51.5746 126.992 53.3016 128.81 55.3008 130.355L56.218 129.168L57.1352 127.981C55.3797 126.625 53.8641 125.03 52.5854 123.191L51.354 124.048ZM56.218 129.168L55.3614 130.399C57.384 131.806 59.4164 133 61.4588 133.977L62.106 132.624L62.7532 131.271C60.8702 130.37 58.9773 129.26 57.0746 127.937L56.218 129.168ZM62.106 132.624L61.4588 133.977C63.4237 134.917 65.0497 135.687 66.3357 136.287L66.97 134.928L67.6043 133.569C66.3303 132.974 64.7136 132.208 62.7532 131.271L62.106 132.624ZM66.97 134.928L66.3333 136.286C69.0826 137.575 71.6239 138.695 73.9561 139.645L74.522 138.256L75.0879 136.867C72.8121 135.94 70.3187 134.841 67.6067 133.57L66.97 134.928ZM74.522 138.256L74.001 139.663C76.2497 140.495 78.5464 141.497 80.8912 142.67L81.562 141.328L82.2328 139.986C79.7989 138.769 77.4023 137.723 75.043 136.849L74.522 138.256ZM81.562 141.328L80.9141 142.681C86.8413 145.519 91.443 148.824 94.7782 152.566L95.898 151.568L97.0178 150.57C93.3557 146.461 88.4001 142.939 82.2099 139.975L81.562 141.328ZM95.898 151.568L94.7782 152.566C98.0481 156.235 99.5964 160.271 99.5182 164.726L101.018 164.752L102.518 164.778C102.61 159.505 100.745 154.752 97.0178 150.57L95.898 151.568ZM101.018 164.752H99.518C99.518 169.257 98.3565 173.135 96.0717 176.444L97.306 177.296L98.5403 178.148C101.205 174.289 102.518 169.804 102.518 164.752H101.018ZM97.306 177.296L96.0673 176.45C93.8467 179.702 90.7861 182.218 86.8356 183.992L87.45 185.36L88.0644 186.728C92.4766 184.747 95.9867 181.888 98.5447 178.142L97.306 177.296ZM87.45 185.36L86.825 183.996C82.9564 185.77 78.4822 186.676 73.37 186.676V188.176V189.676C78.8392 189.676 83.7517 188.705 88.075 186.724L87.45 185.36Z" fill="#16A34A"/>
<path d="M74.4625 148V145.824H80.8625C83.2518 145.824 84.4465 144.629 84.4465 142.24V65.952C84.4465 63.4773 83.2945 62.24 80.9905 62.24H74.4625V60.064H107.231C115.508 60.064 121.951 61.088 126.559 63.136C131.252 65.184 134.537 67.9573 136.415 71.456C138.377 74.8693 139.359 78.752 139.359 83.104C139.359 86.7733 138.42 90.2293 136.543 93.472C134.665 96.6293 131.679 99.2747 127.583 101.408C123.572 103.456 118.281 104.608 111.711 104.864L135.775 145.824H145.631V148H122.975V145.824H133.087L109.023 104.992H108.511C104.073 104.992 100.02 104.779 96.3505 104.352C92.7665 103.925 89.5665 103.413 86.7505 102.816V145.696H101.727V148H74.4625ZM108.511 102.816C115.508 102.816 121.055 101.92 125.151 100.128C129.332 98.2507 132.361 95.8187 134.239 92.832C136.116 89.76 137.055 86.5173 137.055 83.104C137.055 79.1787 136.201 75.68 134.495 72.608C132.788 69.4507 129.759 66.9333 125.407 65.056C121.14 63.1787 115.081 62.24 107.231 62.24H86.7505V100.64C89.4812 101.152 92.6385 101.664 96.2225 102.176C99.8918 102.603 103.988 102.816 108.511 102.816Z" fill="#16A34A"/>
<path d="M74.4625 148H72.9625V149.5H74.4625V148ZM74.4625 145.824V144.324H72.9625V145.824H74.4625ZM74.4625 62.24H72.9625V63.74H74.4625V62.24ZM74.4625 60.064V58.564H72.9625V60.064H74.4625ZM126.559 63.136L125.949 64.5067L125.959 64.5108L126.559 63.136ZM136.415 71.456L135.093 72.1652L135.103 72.1846L135.114 72.2037L136.415 71.456ZM136.543 93.472L137.832 94.2386L137.836 94.2311L137.841 94.2236L136.543 93.472ZM127.583 101.408L128.265 102.744L128.275 102.738L127.583 101.408ZM111.711 104.864L111.652 103.365L109.148 103.463L110.417 105.624L111.711 104.864ZM135.775 145.824L134.481 146.584L134.916 147.324H135.775V145.824ZM145.631 145.824H147.131V144.324H145.631V145.824ZM145.631 148V149.5H147.131V148H145.631ZM122.975 148H121.475V149.5H122.975V148ZM122.975 145.824V144.324H121.475V145.824H122.975ZM133.087 145.824V147.324H135.712L134.379 145.062L133.087 145.824ZM109.023 104.992L110.315 104.23L109.88 103.492H109.023V104.992ZM96.3505 104.352L96.1732 105.841L96.1772 105.842L96.3505 104.352ZM86.7505 102.816L87.0618 101.349L85.2505 100.964V102.816H86.7505ZM86.7505 145.696H85.2505V147.196H86.7505V145.696ZM101.727 145.696H103.227V144.196H101.727V145.696ZM101.727 148V149.5H103.227V148H101.727ZM125.151 100.128L125.752 101.502L125.758 101.499L125.765 101.496L125.151 100.128ZM134.239 92.832L135.508 93.6302L135.513 93.6222L135.518 93.6142L134.239 92.832ZM134.495 72.608L133.175 73.3213L133.179 73.3289L133.183 73.3365L134.495 72.608ZM125.407 65.056L124.802 66.429L124.812 66.4333L125.407 65.056ZM86.7505 62.24V60.74H85.2505V62.24H86.7505ZM86.7505 100.64H85.2505V101.885L86.4741 102.114L86.7505 100.64ZM96.2225 102.176L96.0104 103.661L96.0298 103.664L96.0493 103.666L96.2225 102.176ZM74.4625 148H75.9625V145.824H74.4625H72.9625V148H74.4625ZM74.4625 145.824V147.324H80.8625V145.824V144.324H74.4625V145.824ZM80.8625 145.824V147.324C82.2884 147.324 83.6333 146.967 84.6112 145.989C85.589 145.011 85.9465 143.666 85.9465 142.24H84.4465H82.9465C82.9465 143.203 82.7067 143.651 82.4898 143.867C82.273 144.084 81.8259 144.324 80.8625 144.324V145.824ZM84.4465 142.24H85.9465V65.952H84.4465H82.9465V142.24H84.4465ZM84.4465 65.952H85.9465C85.9465 64.509 85.6128 63.1474 84.6803 62.1459C83.7291 61.1241 82.4023 60.74 80.9905 60.74V62.24V63.74C81.8827 63.74 82.2839 63.9745 82.4847 64.1901C82.7042 64.4259 82.9465 64.9203 82.9465 65.952H84.4465ZM80.9905 62.24V60.74H74.4625V62.24V63.74H80.9905V62.24ZM74.4625 62.24H75.9625V60.064H74.4625H72.9625V62.24H74.4625ZM74.4625 60.064V61.564H107.231V60.064V58.564H74.4625V60.064ZM107.231 60.064V61.564C115.416 61.564 121.618 62.5815 125.949 64.5067L126.559 63.136L127.168 61.7653C122.283 59.5945 115.6 58.564 107.231 58.564V60.064ZM126.559 63.136L125.959 64.5108C130.434 66.4636 133.416 69.0396 135.093 72.1652L136.415 71.456L137.736 70.7468C135.659 66.8751 132.07 63.9044 127.158 61.7612L126.559 63.136ZM136.415 71.456L135.114 72.2037C136.933 75.3662 137.859 78.9861 137.859 83.104H139.359H140.859C140.859 78.5179 139.822 74.3725 137.715 70.7083L136.415 71.456ZM139.359 83.104H137.859C137.859 86.5036 136.992 89.7011 135.244 92.7204L136.543 93.472L137.841 94.2236C139.847 90.7576 140.859 87.043 140.859 83.104H139.359ZM136.543 93.472L135.253 92.7054C133.551 95.5684 130.801 98.0402 126.89 100.078L127.583 101.408L128.275 102.738C132.556 100.509 135.779 97.6902 137.832 94.2386L136.543 93.472ZM127.583 101.408L126.9 100.072C123.151 101.986 118.098 103.114 111.652 103.365L111.711 104.864L111.769 106.363C118.465 106.102 123.992 104.926 128.265 102.744L127.583 101.408ZM111.711 104.864L110.417 105.624L134.481 146.584L135.775 145.824L137.068 145.064L113.004 104.104L111.711 104.864ZM135.775 145.824V147.324H145.631V145.824V144.324H135.775V145.824ZM145.631 145.824H144.131V148H145.631H147.131V145.824H145.631ZM145.631 148V146.5H122.975V148V149.5H145.631V148ZM122.975 148H124.475V145.824H122.975H121.475V148H122.975ZM122.975 145.824V147.324H133.087V145.824V144.324H122.975V145.824ZM133.087 145.824L134.379 145.062L110.315 104.23L109.023 104.992L107.73 105.754L131.794 146.586L133.087 145.824ZM109.023 104.992V103.492H108.511V104.992V106.492H109.023V104.992ZM108.511 104.992V103.492C104.12 103.492 100.126 103.281 96.5238 102.862L96.3505 104.352L96.1772 105.842C99.9141 106.276 104.026 106.492 108.511 106.492V104.992ZM96.3505 104.352L96.5278 102.863C92.9781 102.44 89.824 101.935 87.0618 101.349L86.7505 102.816L86.4392 104.283C89.309 104.892 92.5549 105.411 96.1732 105.841L96.3505 104.352ZM86.7505 102.816H85.2505V145.696H86.7505H88.2505V102.816H86.7505ZM86.7505 145.696V147.196H101.727V145.696V144.196H86.7505V145.696ZM101.727 145.696H100.227V148H101.727H103.227V145.696H101.727ZM101.727 148V146.5H74.4625V148V149.5H101.727V148ZM108.511 102.816V104.316C115.61 104.316 121.389 103.411 125.752 101.502L125.151 100.128L124.549 98.7538C120.72 100.429 115.405 101.316 108.511 101.316V102.816ZM125.151 100.128L125.765 101.496C130.136 99.5337 133.433 96.9326 135.508 93.6302L134.239 92.832L132.969 92.0337C131.29 94.7048 128.527 96.9676 124.536 98.7596L125.151 100.128ZM134.239 92.832L135.518 93.6142C137.531 90.3201 138.555 86.8087 138.555 83.104H137.055H135.555C135.555 86.226 134.7 89.1999 132.959 92.0498L134.239 92.832ZM137.055 83.104H138.555C138.555 78.9541 137.65 75.1995 135.806 71.8795L134.495 72.608L133.183 73.3365C134.752 76.1605 135.555 79.4032 135.555 83.104H137.055ZM134.495 72.608L135.814 71.8947C133.902 68.3578 130.563 65.6466 126.001 63.6787L125.407 65.056L124.812 66.4333C128.954 68.22 131.673 70.5435 133.175 73.3213L134.495 72.608ZM125.407 65.056L126.011 63.683C121.466 61.6835 115.166 60.74 107.231 60.74V62.24V63.74C114.996 63.74 120.813 64.6739 124.802 66.429L125.407 65.056ZM107.231 62.24V60.74H86.7505V62.24V63.74H107.231V62.24ZM86.7505 62.24H85.2505V100.64H86.7505H88.2505V62.24H86.7505ZM86.7505 100.64L86.4741 102.114C89.2313 102.631 92.4109 103.147 96.0104 103.661L96.2225 102.176L96.4346 100.691C92.8661 100.181 89.731 99.6727 87.0269 99.1657L86.7505 100.64ZM96.2225 102.176L96.0493 103.666C99.7871 104.101 103.942 104.316 108.511 104.316V102.816V101.316C104.033 101.316 99.9965 101.105 96.3958 100.686L96.2225 102.176Z" fill="#16A34A"/>
</svg>